<?xml version="1.0" encoding="utf-8"?>
<!-- Generator: Adobe Illustrator 16.2.1, SVG Export Plug-In . SVG Version: 6.00 Build 0)  -->
<!DOCTYPE svg PUBLIC "-//W3C//DTD SVG 1.1//EN" "http://www.w3.org/Graphics/SVG/1.1/DTD/svg11.dtd">
<svg version="1.1" id="Layer_1" xmlns="http://www.w3.org/2000/svg" xmlns:xlink="http://www.w3.org/1999/xlink" x="0px" y="0px"
	 width="177.846px" height="177.846px" viewBox="0 167.078 177.846 177.846" enable-background="new 0 167.078 512 177.846"
	 xml:space="preserve">
<g>
	
	<circle fill="#D80000" cx="90.024" cy="256" r="36.306"/>
	<rect x="70" y="251" fill="#FFFFFF" width="40" height="10"/>
	<rect x="85" y="236" fill="#FFFFFF" width="10" height="40"/>
	
	<path fill="#FFFFFF" d="M164.115,194.395c0-6.897-5.592-12.485-12.486-12.485c-3.129,0-5.98,1.159-8.171,3.06
		c-14.887-11.227-33.397-17.892-53.435-17.892c-49.032,0-88.923,39.891-88.923,88.923c0,49.031,39.891,88.923,88.923,88.923
		c49.032,0,88.922-39.892,88.922-88.923c0-20.039-6.665-38.548-17.892-53.435C162.956,200.375,164.115,197.523,164.115,194.395z
		 M90.023,341.932c-47.382,0-85.931-38.55-85.931-85.932s38.548-85.931,85.931-85.931c19.266,0,37.07,6.374,51.417,17.123
		c-1.442,2.036-2.297,4.517-2.297,7.203c0,6.894,5.59,12.483,12.485,12.483c2.685,0,5.165-0.855,7.202-2.297
		c10.749,14.348,17.123,32.152,17.123,51.419C175.954,303.382,137.406,341.932,90.023,341.932z"/>
</g>
</svg>
